<?xml version="1.0" encoding="UTF-8" standalone="no"?>
<!-- Generator: Adobe Illustrator 19.1.0, SVG Export Plug-In . SVG Version: 6.00 Build 0)  -->

<svg
   xmlns:dc="http://purl.org/dc/elements/1.1/"
   xmlns:cc="http://creativecommons.org/ns#"
   xmlns:rdf="http://www.w3.org/1999/02/22-rdf-syntax-ns#"
   xmlns:svg="http://www.w3.org/2000/svg"
   xmlns="http://www.w3.org/2000/svg"
   xmlns:sodipodi="http://sodipodi.sourceforge.net/DTD/sodipodi-0.dtd"
   xmlns:inkscape="http://www.inkscape.org/namespaces/inkscape"
   version="1.1"
   id="Capa_1"
   x="0px"
   y="0px"
   viewBox="0 0 485.231 485.231"
   style="enable-background:new 0 0 485.231 485.231;"
   xml:space="preserve"
   width="512px"
   height="512px"
   inkscape:version="0.48.5 r10040"
   sodipodi:docname="credit-card.svg"><metadata
     id="metadata5291"><rdf:RDF><cc:Work
         rdf:about=""><dc:format>image/svg+xml</dc:format><dc:type
           rdf:resource="http://purl.org/dc/dcmitype/StillImage" /></cc:Work></rdf:RDF></metadata><defs
     id="defs5289" /><sodipodi:namedview
     pagecolor="#ffffff"
     bordercolor="#666666"
     borderopacity="1"
     objecttolerance="10"
     gridtolerance="10"
     guidetolerance="10"
     inkscape:pageopacity="0"
     inkscape:pageshadow="2"
     inkscape:window-width="802"
     inkscape:window-height="480"
     id="namedview5287"
     showgrid="false"
     inkscape:zoom="0.4609375"
     inkscape:cx="256"
     inkscape:cy="256"
     inkscape:window-x="0"
     inkscape:window-y="25"
     inkscape:window-maximized="0"
     inkscape:current-layer="Capa_1" /><g
     id="g5239"
     style="fill:#ffffff;fill-opacity:1"><g
       id="g5241"
       style="fill:#ffffff;fill-opacity:1"><g
         id="g5243"
         style="fill:#ffffff;fill-opacity:1"><g
           id="g5245"
           style="fill:#ffffff;fill-opacity:1"><path
             d="M440.831,176.681h-252c-24.4,0-44.4,20-44.4,44.4v159.6c0,24.4,20,44.4,44.4,44.4h252c24.4,0,44.4-20,44.4-44.4v-159.6      C485.331,196.581,465.231,176.681,440.831,176.681z M461.331,381.281c0,8.8-7.2,16.1-16.1,16.1h-256.9      c-8.8,0-16.1-7.2-16.1-16.1v-112.3h289.1V381.281z M461.331,226.681h-289.1v-6.1c0-8.8,7.2-16.1,16.1-16.1h256.9      c8.8,0,16.1,7.2,16.1,16.1V226.681z"
             fill="#333333"
             id="path5247"
             style="fill:#ffffff;fill-opacity:1" /></g></g><g
         id="g5249"
         style="fill:#ffffff;fill-opacity:1"><path
           d="M185.631,149.281h156.3l-31.8-64.4c-10.9-22-37.6-31-59.6-20.1l-225.8,111.6c-22,10.9-31,37.6-20.1,59.6l70.8,143.1     c9.5,19.3,31.4,28.7,51.5,23.2c-6-10.1-9.4-21.8-9.4-34.3v-150.5C117.431,179.981,148.131,149.281,185.631,149.281z"
           fill="#333333"
           id="path5251"
           style="fill:#ffffff;fill-opacity:1" /></g><g
         id="g5253"
         style="fill:#ffffff;fill-opacity:1"><path
           d="M217.731,380.081c8.7,0,16.6-3.9,21.8-10.1c5.3,6.2,13.1,10.1,21.8,10.1c15.9,0,28.8-12.9,28.8-28.8     s-12.9-28.8-28.8-28.8c-8.7,0-16.6,3.9-21.8,10.1c-5.3-6.2-13.1-10.1-21.8-10.1c-15.9,0-28.8,12.9-28.8,28.8     S201.831,380.081,217.731,380.081z"
           fill="#333333"
           id="path5255"
           style="fill:#ffffff;fill-opacity:1" /></g></g></g><g
     id="g5257"
     style="fill:#ffffff;fill-opacity:1" /><g
     id="g5259"
     style="fill:#ffffff;fill-opacity:1" /><g
     id="g5261"
     style="fill:#ffffff;fill-opacity:1" /><g
     id="g5263"
     style="fill:#ffffff;fill-opacity:1" /><g
     id="g5265"
     style="fill:#ffffff;fill-opacity:1" /><g
     id="g5267"
     style="fill:#ffffff;fill-opacity:1" /><g
     id="g5269"
     style="fill:#ffffff;fill-opacity:1" /><g
     id="g5271"
     style="fill:#ffffff;fill-opacity:1" /><g
     id="g5273"
     style="fill:#ffffff;fill-opacity:1" /><g
     id="g5275"
     style="fill:#ffffff;fill-opacity:1" /><g
     id="g5277"
     style="fill:#ffffff;fill-opacity:1" /><g
     id="g5279"
     style="fill:#ffffff;fill-opacity:1" /><g
     id="g5281"
     style="fill:#ffffff;fill-opacity:1" /><g
     id="g5283"
     style="fill:#ffffff;fill-opacity:1" /><g
     id="g5285"
     style="fill:#ffffff;fill-opacity:1" /></svg>