<?xml version="1.0" encoding="UTF-8" standalone="no"?>
<!-- Generator: Adobe Illustrator 16.0.0, SVG Export Plug-In . SVG Version: 6.00 Build 0)  -->

<svg
   xmlns:dc="http://purl.org/dc/elements/1.1/"
   xmlns:cc="http://creativecommons.org/ns#"
   xmlns:rdf="http://www.w3.org/1999/02/22-rdf-syntax-ns#"
   xmlns:svg="http://www.w3.org/2000/svg"
   xmlns="http://www.w3.org/2000/svg"
   xmlns:sodipodi="http://sodipodi.sourceforge.net/DTD/sodipodi-0.dtd"
   xmlns:inkscape="http://www.inkscape.org/namespaces/inkscape"
   version="1.1"
   id="Capa_1"
   x="0px"
   y="0px"
   width="512px"
   height="512px"
   viewBox="0 0 612 612"
   style="enable-background:new 0 0 612 612;"
   xml:space="preserve"
   inkscape:version="0.48.5 r10040"
   sodipodi:docname="order.svg"><metadata
     id="metadata4633"><rdf:RDF><cc:Work
         rdf:about=""><dc:format>image/svg+xml</dc:format><dc:type
           rdf:resource="http://purl.org/dc/dcmitype/StillImage" /></cc:Work></rdf:RDF></metadata><defs
     id="defs4631" /><sodipodi:namedview
     pagecolor="#ffffff"
     bordercolor="#666666"
     borderopacity="1"
     objecttolerance="10"
     gridtolerance="10"
     guidetolerance="10"
     inkscape:pageopacity="0"
     inkscape:pageshadow="2"
     inkscape:window-width="802"
     inkscape:window-height="480"
     id="namedview4629"
     showgrid="false"
     inkscape:zoom="0.4609375"
     inkscape:cx="256"
     inkscape:cy="256"
     inkscape:window-x="0"
     inkscape:window-y="25"
     inkscape:window-maximized="0"
     inkscape:current-layer="g4592" /><g
     id="g4592"><g
       id="New_x5F_Post"
       style="fill:#ffffff;fill-opacity:1"><g
         id="g4595"
         style="fill:#ffffff;fill-opacity:1"><path
           d="M545.062,286.875c-15.854,0-28.688,12.852-28.688,28.688v239.062h-459v-459h239.062     c15.854,0,28.688-12.852,28.688-28.688S312.292,38.25,296.438,38.25H38.25C17.136,38.25,0,55.367,0,76.5v497.25     C0,594.883,17.136,612,38.25,612H535.5c21.114,0,38.25-17.117,38.25-38.25V315.562     C573.75,299.727,560.917,286.875,545.062,286.875z M605.325,88.95L523.03,6.655C518.556,2.18,512.684,0,506.812,0     s-11.743,2.18-16.218,6.675l-318.47,318.45v114.75h114.75l318.45-318.45c4.494-4.495,6.675-10.366,6.675-16.237     C612,99.297,609.819,93.445,605.325,88.95z M267.75,382.5H229.5v-38.25L506.812,66.938l38.25,38.25L267.75,382.5z"
           fill="#333333"
           id="path4597"
           style="fill:#ffffff;fill-opacity:1" /></g></g></g><g
     id="g4599" /><g
     id="g4601" /><g
     id="g4603" /><g
     id="g4605" /><g
     id="g4607" /><g
     id="g4609" /><g
     id="g4611" /><g
     id="g4613" /><g
     id="g4615" /><g
     id="g4617" /><g
     id="g4619" /><g
     id="g4621" /><g
     id="g4623" /><g
     id="g4625" /><g
     id="g4627" /></svg>